# xmcd
#
# Track frame offsets:
#	150
#	16608
#	35795
#	53640
#	73375
#	90070
#	103195
#	118080
#	134914
#	153190
#	169671
#	185280
#	198625
#	218517
#
# Disc length: 3219 seconds
#
# Revision: 0
# Processed by: cddbd v1.4PL0 Copyright (c) Steve Scherf et al.
# Submitted via: audiograbber 1.80
#
DISCID=bf0c910e
DTITLE=Nirvana - Unpluged In New York
DYEAR=1900
DGENRE=
TTITLE0=About A Girl
TTITLE1=Come As You Are
TTITLE2=Jesus Doesn't Want Me For A Sunbeam
TTITLE3=The Man Who Sold The World
TTITLE4=Pennyroyal Tea
TTITLE5=Dumb
TTITLE6=Polly
TTITLE7=On A Plain
TTITLE8=Something In The Way
TTITLE9=Plateau
TTITLE10=Oh Me
TTITLE11=Lake Of Fire
TTITLE12=All Apologies
TTITLE13=Where Did You Sleep Last Night
EXTD=
EXTT0=
EXTT1=
EXTT2=
EXTT3=
EXTT4=
EXTT5=
EXTT6=
EXTT7=
EXTT8=
EXTT9=
EXTT10=
EXTT11=
EXTT12=
EXTT13=
PLAYORDER=
